<svg width="784" height="185" viewBox="0 0 784 185" fill="none" xmlns="http://www.w3.org/2000/svg">
<path fill-rule="evenodd" clip-rule="evenodd" d="M96.4838 105.781L96.4761 105.775C92.6718 102.764 85.99 104.797 84.424 107.375C80.2941 114.176 82.1627 116.872 76.2645 124.584C73.5004 128.199 74.0467 128.757 70.167 131.08C64.9123 134.227 66.6961 133.121 60.8195 134.997C56.8091 136.277 55.2855 135.883 51.0964 136.325C36.8364 136.182 36.3662 129.858 32.0729 130.75C26.6018 131.886 26.3565 139.838 26.3234 140.585C26.3158 140.754 26.3052 161.367 26.3271 162.167C26.4282 165.859 28.6738 168.506 27.293 173.248C25.252 180.258 28.7109 184.358 20.8908 184.471C5.94688 184.686 4.82143 184.072 3.6074 183.41C-0.38047 181.234 -0.0671156 179.848 0.0666824 174.806C0.173348 170.787 1.31262 170.966 1.34973 166.914C1.51292 149.061 0.606795 144.882 0.332017 143.7C-0.597786 139.7 1.25144 135.277 1.27498 134.25C1.34773 131.071 1.09836 131.106 1.30398 127.91C1.81297 119.999 0.0557764 120.107 0.0500574 112.159C0.0448704 105.048 0.358342 105.109 1.21699 101.021C1.39335 100.182 1.51478 65.0118 1.14744 63.3666C1.00832 62.7432 0.738333 62.1548 0.579265 61.5362C0.421926 60.9243 -0.0974471 58.9039 1.69486 53.7207C2.6764 50.8821 10.1921 48.8817 14.6537 50.2014C18.569 51.3594 18.6516 50.8049 22.5404 51.9671C23.0415 52.1168 23.0535 52.0375 28.9075 53.4587C32.5493 54.3428 34.542 52.5411 38.378 52.4941C43.1335 52.4358 43.1017 52.5247 47.7731 51.5647C49.1802 51.2754 60.6524 53.0054 64.9239 55.982C78.4885 65.4349 75.3503 69.4354 83.0214 72.3834C84.4621 72.937 89.5694 73.4064 92.0489 72.0562C94.328 70.8151 96.0896 69.4894 97.5206 68.1629C97.5292 60.4801 97.5961 54.4308 97.8242 53.7895C99.5497 48.9378 102.211 49.9792 114.916 49.6569C121.38 49.4929 123.684 53.4762 123.674 57.6819C123.677 59.0345 123.44 60.4119 123.024 61.6833C122.358 63.7197 122.116 65.1577 122.113 66.3622C122.121 69.1802 123.431 70.7347 123.611 75.7775C123.633 76.4191 123.645 76.9562 123.645 77.4216C123.647 79.9006 123.313 80.3638 122.475 83.6072C122.265 84.422 122.179 85.1126 122.178 85.7309C122.192 88.209 123.557 89.5361 123.607 93.1304L123.608 93.1837C123.684 98.7083 123.593 98.6743 123.72 104.19L123.72 104.243C123.533 108.239 123.652 108.218 122.543 112.025C122.199 113.203 122.098 114.942 122.097 116.945C122.097 119.759 122.294 123.092 122.294 126.125C122.295 130.401 122.105 133.545 120.234 134.351C114.747 136.716 98.6647 137.736 96.8565 132.41C95.5266 128.493 96.7614 123.806 96.9707 123.041C98.6901 116.752 97.0166 110.276 96.7394 109.203C96.346 107.681 96.3351 106.683 96.4842 105.781H96.4838ZM55.427 77.8748C48.619 71.7422 40.3471 73.0836 40.0672 73.1513C26.4704 76.4406 27.7087 91.5902 27.7227 96.3736C27.7575 108.34 36.1654 113.213 36.8808 113.57C45.1043 117.678 51.4765 112.558 54.3891 110.747C58.1124 108.431 62.4809 96.0688 61.3771 91.4194C59.5411 83.6846 58.7134 81.3777 55.427 77.8748Z" fill="black"></path>
<path fill-rule="evenodd" clip-rule="evenodd" d="M270.65 52.5428C275.544 50.8933 281.708 49.6519 285.51 49.652C293.185 49.6524 294.716 51.2483 300.459 53.7348C303.524 55.0621 309.746 59.4461 311.911 62.6904C313.446 64.9908 313.603 64.8182 315.388 66.9372C316.432 68.1751 318.008 70.0461 322.055 85.9621C322.28 86.8491 322.656 96.0616 321.82 98.0393C320.826 100.389 313.721 101.209 312.608 100.998C312.121 100.905 311.676 100.637 311.185 100.569C308.904 100.25 308.913 101.035 306.658 100.688C297.011 99.2033 281.751 100.358 280.876 100.594C278.002 101.372 278.012 101.237 275.015 101.455C270.203 101.804 271.489 106.747 273.886 109.491C278.638 114.93 283.484 114.102 288.52 114.041C295.592 113.955 300.254 106.921 304.687 110.355C315.02 118.36 316.054 118.698 314.871 122.046C314.565 122.914 305.335 131.254 304.774 131.568C304.63 131.648 292.453 135.701 291.427 135.914C285.618 137.12 271.275 135.614 266.973 132.918C262.423 130.066 255.854 128.145 250.82 117.32C248.352 112.012 243.67 103.098 245.094 98.0422C246.069 94.5842 245.08 89.5107 246.091 85.9726C247.166 82.2125 246.64 82.1816 246.859 78.639C247.068 75.2701 251.618 65.658 255.73 62.8053C260.628 59.4068 263.486 54.9569 270.65 52.5425L270.65 52.5428ZM284.005 71.8124C279.976 71.9519 278.469 71.8058 273.279 76.9531C267.932 82.2547 272.218 85.5154 275.001 85.7089C278.711 85.9669 278.725 85.6204 282.317 86.5887C285.536 87.4565 300.972 88.5032 297.671 80.0597C296.679 77.5223 292.4 73.0981 288.668 72.1863C286.979 71.7735 287.009 71.9487 284.005 71.8124Z" fill="black"></path>
<path fill-rule="evenodd" clip-rule="evenodd" d="M198.076 49.652C200.236 49.9104 207.706 48.5117 203.199 57.0139C199.888 63.26 199.678 63.0899 190.639 76.0446C188.321 79.3664 184.102 89.3028 184.527 91.3431C185.141 94.2899 189.341 97.9671 192.745 104.37C195.362 109.293 195.119 109.379 199.252 115.381C201.546 118.711 200.522 119.309 203.414 122.479C207.347 126.791 206.908 127.075 208.895 132.54C209.029 132.911 210.249 135.91 205.989 136.188C205.936 136.191 189.066 136.226 188.573 136.165C179.964 135.1 178.023 124.717 173.828 120.188C170.803 116.922 170.614 114.783 167.853 114.9C164.999 115.021 164.755 118.434 161.726 121.61C155.621 128.009 157.398 136.186 147.181 136.285C145.796 136.298 130.571 136.445 129.87 136.165C123.197 133.505 134.934 120.318 135.364 119.458C137.471 115.244 137.245 115.145 140.291 111.501C143.048 108.201 151.481 92.3256 152.188 89.9775C153.776 84.7039 148.869 84.2209 139.69 67.6195C136.216 61.3372 129.218 52.8185 137.589 51.4392C142.793 50.5817 155.678 47.3271 158.523 53.8645C159.204 55.4289 158.904 56.3148 161.934 59.5747C162.845 60.5548 166.049 66.1561 170.662 64.0334C173.005 62.9553 177.51 51.6294 180.48 50.3285C182.688 49.3615 182.807 49.9987 198.076 49.652Z" fill="black"></path>
<path fill-rule="evenodd" clip-rule="evenodd" d="M240.728 104.187C240.54 108.182 240.659 108.161 239.55 111.968C238.046 117.129 241.114 132.09 237.247 134.411C233.308 136.776 215.678 137.796 213.87 132.47C212.54 128.554 213.769 123.748 213.978 122.983C215.697 116.694 214.024 110.219 213.747 109.146C212.656 104.925 214.506 104.733 214.554 99.4525C214.66 87.6053 214.287 55.3187 214.831 53.7894C216.557 48.9379 219.219 49.9793 231.923 49.6571C240.44 49.441 241.734 56.4235 240.031 61.6294C237.788 68.4872 240.361 68.5587 240.618 75.776C240.76 79.7691 240.473 79.7159 239.482 83.5518C238.417 87.6775 240.552 88.6172 240.614 93.1278C240.692 98.6879 240.6 98.6357 240.728 104.187L240.728 104.187Z" fill="black"></path>
<path fill-rule="evenodd" clip-rule="evenodd" d="M237.119 19.5612C237.492 20.2558 238.012 20.3018 239.116 23.2802C239.767 25.039 242.83 31.1279 236.002 35.559C235.062 36.1689 232.064 40.7966 223.816 39.7544C220.473 39.3319 212.619 31.7256 213.549 26.1895C214.105 22.8767 217.031 17.7052 218.447 16.6836C228.008 9.78778 236.088 18.4552 237.119 19.5612Z" fill="black"></path>
<path fill-rule="evenodd" clip-rule="evenodd" d="M120.112 19.5612C120.484 20.2558 121.004 20.3018 122.108 23.2802C122.76 25.039 125.822 31.1279 118.994 35.559C118.054 36.1689 115.056 40.7966 106.809 39.7544C103.465 39.3319 95.6115 31.7256 96.5413 26.1895C97.0976 22.8767 100.023 17.7052 101.439 16.6836C111 9.78778 119.081 18.4552 120.112 19.5612Z" fill="black"></path>
<path fill-rule="evenodd" clip-rule="evenodd" d="M783.17 92.619C783.17 95.4405 783.171 113.572 771.115 125.755C761.575 135.394 761.083 135.936 747.565 136.247C730.606 136.638 727.185 124.108 721.704 133.272C719.952 136.202 718.941 136.533 704.78 136.256C697.032 136.105 698.166 130.845 698.166 108.504L698.166 10.9882C698.168 3.55898 697.829 0.066011 706.357 0.0544303C719.324 0.0368597 722.594 -0.760079 722.912 4.3848C723.409 12.4398 723.059 29.8234 723.053 33.8434C723.053 42.2756 720.56 54.9421 730.28 51.6784C739.16 48.6967 759.752 48.3996 770.43 56.5721C779.61 63.5981 783.169 74.9329 783.17 92.619ZM752.589 107.097C754.264 104.303 754.235 104.31 754.398 104.08C759.767 96.5058 755.944 86.3665 755.904 83.0834C755.819 76.2097 755.836 75.4953 748.805 70.9C743.143 67.2001 732.52 69.8178 728.776 75.2864C724.675 81.2772 726.01 83.8798 725.347 86.2553C725.104 87.1263 723.51 92.839 724.89 97.5506C726.851 104.242 728.172 108.63 733.626 110.947C746.43 116.388 750.853 109.092 752.589 107.097Z" fill="black"></path>
<path fill-rule="evenodd" clip-rule="evenodd" d="M639.912 80.5772C639.912 90.4824 639.933 90.4351 639.803 94.7358C639.787 95.2507 640.927 111.669 650.194 112.055C656.748 112.328 659.47 111.582 663.126 107.501C665.472 104.882 668.156 92.9908 667.031 88.6251C666.189 85.354 666.383 85.3447 667.101 82.0285C667.413 80.5898 667.415 64.7022 667.089 63.248C666.008 58.4164 666.088 58.3384 667.652 53.6644C669.406 48.4202 675.062 49.9544 675.773 50.0113C685.16 50.7613 685.724 49.263 689.828 52.2608C695.142 56.1426 689.953 65.8519 693.231 77.3987C694.164 80.6855 692.51 81.9172 692.374 85.2495C691.938 95.8935 693.384 96.6823 693.555 97.8309C694.514 104.261 692.873 110.816 692.599 111.912C691.586 115.958 694.717 115.908 693.853 119.968C693.029 123.84 692.49 125.002 692.346 128.979C692.044 137.339 686.528 136.335 677.235 136.258C667.941 136.181 665.041 127.278 657.648 131.949C651.205 136.02 634.357 139.885 625.028 130.652C618.944 124.63 619.583 124.143 618.451 121.46C614.374 111.798 615.362 111.553 615.201 101.032C615.158 98.2812 613.114 92.8327 614.218 88.6144C615.267 84.6049 614.927 84.5781 614.112 80.4873C613.964 79.7424 613.573 57.6875 614.367 55.5082C615.782 51.6231 618.645 50.9916 621.434 50.136C621.758 50.0364 632.019 48.6967 635.644 50.9593C641.279 54.4761 639.334 55.5258 639.912 80.5772Z" fill="black"></path>
<path fill-rule="evenodd" clip-rule="evenodd" d="M550.736 49.652C559.39 50.1121 563.716 51.4985 571.876 59.8345C574.609 62.6266 581.551 67.6625 574.627 72.5217C574.103 72.8892 573.927 72.4806 567.235 75.6038C557.686 80.0603 557.679 73.5748 549.205 73.4709C546.586 73.4389 540.71 71.9774 534.36 79.6903C532.873 81.4959 533.011 81.8278 531.066 88.5023C528.276 98.0779 535.403 113.856 546.155 113.964C555.579 114.059 554.53 110.331 559.786 109.206C561.923 108.748 562.26 108.078 573.29 113.486C581.296 117.411 577.075 120.751 574.537 124.473C573.539 125.938 569.913 131.256 555.428 135.827C554.26 136.196 554.237 136.041 543.094 136.334C541.309 136.381 527.327 133.869 522.303 128.839C511.798 118.32 511.754 118.335 511.169 117.188C510.567 116.008 507.337 107.77 507.047 103.613C506.776 99.7404 505.753 99.9117 505.686 96.0473C505.547 88.0188 505.227 87.9267 508.975 76.121C509.277 75.1693 510.723 70.6154 514.803 65.0708C518.052 60.6566 518.576 61.196 522.374 57.2323C525.078 54.411 535.237 49.8203 540.023 49.7601C545.406 49.6924 545.358 49.7745 550.736 49.652Z" fill="black"></path>
<path fill-rule="evenodd" clip-rule="evenodd" d="M608.214 71.6722C608.15 74.9261 608.227 74.8855 609.182 77.9556C610.592 82.4924 608.877 88.2067 608.621 89.0585C608.146 90.6404 607.666 117.569 608.76 121.084C609.047 122.005 613.16 135.047 602.554 136.298C602.067 136.355 590.48 136.341 589.921 136.288C583.964 135.724 583.504 132.778 583.409 132.168C583.143 130.463 583.75 91.9953 583.046 89.3177C581.768 84.458 581.693 84.3918 582.971 79.4672C584.496 73.595 580.949 70.2536 582.579 63.9175C584.398 56.8457 582.214 56.8222 582.212 52.5717C582.211 50.956 583.621 51.0496 583.358 31.8818C583.303 27.8254 582.168 27.9927 582.116 23.9202C581.886 6.16236 581.716 0.272851 589.878 0.130156C604.582 -0.127015 607.68 -0.0721675 608.084 6.06585C608.407 10.9633 609.578 11.0844 609.619 15.9584C609.677 22.8868 609.49 22.8714 608.706 25.4229C607.582 29.0752 608.372 34.3979 608.486 35.1694C609.083 39.1951 607.441 39.2568 608.516 43.1517C609.785 47.7487 609.575 47.8211 608.492 52.4423C608.154 53.8839 608.216 54.9135 608.214 71.6719L608.214 71.6722Z" fill="black"></path>
</svg>